<svg xmlns="http://www.w3.org/2000/svg" width="512" height="512" viewBox="0 0 512 512" shape-rendering="crispEdges"><g id="floor-grid" transform="translate(0 0)"><rect x="0" y="0" width="256" height="256" fill="#1b2a3f"/><line x1="0" y1="0" x2="0" y2="256" stroke="#38536d" stroke-width="2"/><line x1="32" y1="0" x2="32" y2="256" stroke="#253a50" stroke-width="1"/><line x1="64" y1="0" x2="64" y2="256" stroke="#38536d" stroke-width="2"/><line x1="96" y1="0" x2="96" y2="256" stroke="#253a50" stroke-width="1"/><line x1="128" y1="0" x2="128" y2="256" stroke="#38536d" stroke-width="2"/><line x1="160" y1="0" x2="160" y2="256" stroke="#253a50" stroke-width="1"/><line x1="192" y1="0" x2="192" y2="256" stroke="#38536d" stroke-width="2"/><line x1="224" y1="0" x2="224" y2="256" stroke="#253a50" stroke-width="1"/><line x1="256" y1="0" x2="256" y2="256" stroke="#38536d" stroke-width="2"/><line x1="0" y1="0" x2="256" y2="0" stroke="#38536d" stroke-width="2"/><line x1="0" y1="32" x2="256" y2="32" stroke="#253a50" stroke-width="1"/><line x1="0" y1="64" x2="256" y2="64" stroke="#38536d" stroke-width="2"/><line x1="0" y1="96" x2="256" y2="96" stroke="#253a50" stroke-width="1"/><line x1="0" y1="128" x2="256" y2="128" stroke="#38536d" stroke-width="2"/><line x1="0" y1="160" x2="256" y2="160" stroke="#253a50" stroke-width="1"/><line x1="0" y1="192" x2="256" y2="192" stroke="#38536d" stroke-width="2"/><line x1="0" y1="224" x2="256" y2="224" stroke="#253a50" stroke-width="1"/><line x1="0" y1="256" x2="256" y2="256" stroke="#38536d" stroke-width="2"/><rect x="0" y="0" width="256" height="256" fill="none" stroke="#70e8ff" stroke-width="3" opacity="0.18"/></g><g id="data-wall" transform="translate(256 0)"><rect x="0" y="0" width="256" height="128" fill="#0d1828"/><rect x="8" y="8" width="240" height="112" fill="#122236" stroke="#2f4662" stroke-width="4"/><line x1="24" y1="88" x2="58" y2="62" stroke="#70e8ff" stroke-width="4"/><line x1="58" y1="62" x2="96" y2="72" stroke="#70e8ff" stroke-width="4"/><line x1="96" y1="72" x2="138" y2="38" stroke="#ff6f61" stroke-width="4"/><line x1="138" y1="38" x2="212" y2="54" stroke="#19a463" stroke-width="4"/><rect x="18" y="142" width="12" height="34" fill="#19a463" opacity="0.86"/><rect x="42" y="134" width="12" height="42" fill="#2868c7" opacity="0.86"/><rect x="66" y="126" width="12" height="50" fill="#d09a26" opacity="0.86"/><rect x="90" y="118" width="12" height="58" fill="#19a463" opacity="0.86"/><rect x="114" y="110" width="12" height="66" fill="#2868c7" opacity="0.86"/><rect x="138" y="102" width="12" height="74" fill="#d09a26" opacity="0.86"/><rect x="162" y="94" width="12" height="82" fill="#19a463" opacity="0.86"/><rect x="186" y="86" width="12" height="90" fill="#2868c7" opacity="0.86"/><rect x="210" y="78" width="12" height="98" fill="#d09a26" opacity="0.86"/><text x="22" y="30" fill="#edf7ff" font-family="Inter,Arial,sans-serif" font-size="15" font-weight="800" letter-spacing="1">ADSS OPS</text><text x="154" y="105" fill="#70e8ff" font-family="Inter,Arial,sans-serif" font-size="13" font-weight="800" letter-spacing="1">VERIFY</text></g><g id="glass-panel" transform="translate(256 128)"><rect x="0" y="0" width="256" height="128" fill="#00000000"/><rect x="10" y="14" width="236" height="96" fill="rgba(143,211,255,0.24)" stroke="#9ed8ff" stroke-width="4" rx="10"/><rect x="22" y="28" width="98" height="10" fill="#70e8ff" opacity="0.76"/><rect x="22" y="48" width="190" height="8" fill="#edf7ff" opacity="0.62"/><rect x="22" y="64" width="154" height="8" fill="#edf7ff" opacity="0.42"/><rect x="22" y="82" width="64" height="12" fill="#19a463" opacity="0.85"/><rect x="96" y="82" width="64" height="12" fill="#d09a26" opacity="0.85"/></g><g id="icon-strip" transform="translate(0 256)"><rect x="0" y="0" width="256" height="128" fill="#0d1828"/><rect x="14" y="24" width="42" height="42" fill="#19a463" opacity="0.9" rx="8"/><rect x="76" y="24" width="42" height="42" fill="#c7403a" opacity="0.9" rx="8"/><rect x="138" y="24" width="42" height="42" fill="#2868c7" opacity="0.9" rx="8"/><rect x="200" y="24" width="42" height="42" fill="#d09a26" opacity="0.9" rx="8"/><text x="24" y="52" fill="#09111f" font-family="Inter,Arial,sans-serif" font-size="24" font-weight="800" letter-spacing="1">+</text><text x="88" y="52" fill="#09111f" font-family="Inter,Arial,sans-serif" font-size="24" font-weight="800" letter-spacing="1">!</text><text x="148" y="52" fill="#09111f" font-family="Inter,Arial,sans-serif" font-size="22" font-weight="800" letter-spacing="1">E</text><text x="210" y="52" fill="#09111f" font-family="Inter,Arial,sans-serif" font-size="22" font-weight="800" letter-spacing="1">M</text><rect x="18" y="86" width="220" height="7" fill="#70e8ff" opacity="0.6"/><rect x="18" y="100" width="146" height="6" fill="#edf7ff" opacity="0.4"/></g><g id="table-top" transform="translate(256 256)"><rect x="0" y="0" width="256" height="128" fill="#122236"/><rect x="14" y="18" width="228" height="86" fill="rgba(143,211,255,0.2)" stroke="#9ed8ff" stroke-width="5" rx="24"/><line x1="40" y1="64" x2="216" y2="64" stroke="#70e8ff" stroke-width="2" opacity="0.5"/><line x1="128" y1="26" x2="128" y2="104" stroke="#70e8ff" stroke-width="2" opacity="0.35"/><text x="74" y="73" fill="#70e8ff" font-family="Inter,Arial,sans-serif" font-size="18" font-weight="800" letter-spacing="1">WAR ROOM</text></g><g id="status-light" transform="translate(0 384)"><rect x="0" y="0" width="256" height="128" fill="#0d1828"/><rect x="30" y="34" width="42" height="42" fill="#19a463" rx="21"/><rect x="86" y="34" width="42" height="42" fill="#d09a26" rx="21"/><rect x="142" y="34" width="42" height="42" fill="#70e8ff" rx="21"/><rect x="198" y="34" width="42" height="42" fill="#c7403a" rx="21"/></g><g id="logo-plate" transform="translate(256 384)"><rect x="0" y="0" width="256" height="128" fill="#101b2d"/><rect x="14" y="18" width="228" height="88" fill="#111827" stroke="#70e8ff" stroke-width="4" rx="8"/><text x="36" y="72" fill="#edf7ff" font-family="Inter,Arial,sans-serif" font-size="24" font-weight="800" letter-spacing="1">AI WAR ROOM</text></g></svg>